<svg xmlns="http://www.w3.org/2000/svg" xmlns:xlink="http://www.w3.org/1999/xlink" xmlns:serif="http://www.serif.com/" version="1.1" xml:space="preserve" style="fill-rule:evenodd;clip-rule:evenodd;stroke-linecap:round;stroke-linejoin:round;stroke-miterlimit:1.5;" viewBox="46.1 45.9 503.31 553.21">
    <g transform="matrix(0.565061,0,0,0.383439,-799.244,-194.034)">
        <path d="M1929.82,819.967C1929.82,819.967 1924.47,1166.5 1783.4,1488.79C1642.33,1811.09 1655.7,1775.09 1598.83,1881.94C1541.96,1988.8 1511.58,1940.84 1499.7,1985.86C1487.83,2030.88 1550.55,2094.67 1609.25,2050.14C1667.95,2005.62 1723.68,1907.12 1767.4,1819.68C1811.13,1732.24 1825.95,1704.45 1827.24,1698.77C1828.53,1693.09 1951.75,2007.36 2124.81,2050.21C2178.66,2063.55 2202.85,2046 2218.13,2029C2232.87,2012.6 2235.91,1994.14 2218.76,1976.5C2208.42,1965.88 2176.78,1953.35 2143.92,1928.33C2105.86,1899.33 2013.96,1826.23 1965.91,1697.95C1907.89,1543.03 1959.8,1667.25 2073.05,1513.29C2191.58,1352.17 2208.89,1279.83 2269.42,1094.42C2330.36,907.782 2338.6,884.514 2378.11,824.28C2392.37,802.548 2380.92,783.127 2362.72,764.739C2330.49,732.161 2272.88,720.858 2203.56,924.551C2158.99,1055.51 2122.96,1166.28 2087.92,1247.72C2039.54,1360.17 1994.13,1424.24 1940.52,1476.19C1855.76,1558.31 1924.35,1457.43 1970.93,1303.56C2019.9,1141.75 2117,694.144 2002.33,641.902C1887.65,589.66 1843.93,698.876 1746.46,924.677C1648.99,1150.48 1851.93,1189.08 1853.22,1016.96C1854.51,844.837 1929.82,819.967 1929.82,819.967Z" style="stroke:rgb(6,0,0);stroke-width:2.51px;"/>
    </g>
</svg>